<?xml version="1.0" encoding="utf-8"?>
<svg version="1.0" width="900.000000pt" height="600.000000pt" viewBox="0 0 900.000000 600.000000" preserveAspectRatio="xMidYMid meet" style="mix-blend-mode: multiply;" xmlns="http://www.w3.org/2000/svg">
  <defs>
    <linearGradient gradientUnits="userSpaceOnUse" x1="4532.204" y1="303.7" x2="4532.204" y2="5740" id="gradient-0" spreadMethod="pad">
      <stop offset="0" style="stop-color: #bada55"/>
      <stop offset="1" style="stop-color: #758d29"/>
    </linearGradient>
    <linearGradient gradientUnits="userSpaceOnUse" x1="4531.382" y1="271.2" x2="4531.382" y2="3284.706" id="gradient-1" spreadMethod="pad">
      <stop offset="0" style="stop-color: #bada55"/>
      <stop offset="1" style="stop-color: #758d29"/>
    </linearGradient>
  </defs>
  <g>
    <g transform="matrix(0.079196, 0, 0, -0.08062, 89.209831, 535.712463)" fill="#77bb41" stroke="none" style="mix-blend-mode: multiply;">
      <path d="M3082 5725 c-74 -7 -161 -18 -195 -24 -58 -11 -89 -19 -242 -58 -478 -122 -963 -414 -1283 -773 -154 -172 -260 -327 -357 -520 -45 -90 -126 -295 -140 -355 -4 -16 -16 -57 -27 -90 -37 -113 -78 -315 -108 -534 -25 -183 -28 -529 -5 -689 37 -259 75 -449 116 -587 73 -244 157 -490 209 -610 5 -11 25 -60 46 -110 144 -350 480 -1046 515 -1068 12 -8 28 -2 65 24 312 213 531 501 647 849 71 213 104 402 142 805 27 296 62 492 113 650 138 421 477 667 1062 770 266 47 518 65 890 65 492 0 816 -34 1140 -120 19 -5 60 -19 90 -31 30 -11 69 -25 85 -30 100 -30 299 -154 385 -239 167 -167 245 -326 314 -645 15 -67 25 -153 61 -490 41 -393 67 -533 142 -752 101 -301 303 -581 556 -770 125 -95 135 -100 157 -77 22 23 360 698 360 719 0 3 19 44 41 92 23 49 56 124 74 168 18 44 39 96 48 115 8 19 22 53 30 75 8 22 25 64 37 93 21 52 118 335 144 422 46 151 88 326 106 440 4 30 13 75 18 100 51 223 49 675 -4 970 -33 185 -116 514 -150 595 -7 17 -29 71 -49 120 -168 410 -490 789 -908 1068 -133 89 -430 235 -582 287 -112 38 -321 94 -445 119 -79 16 -351 41 -445 41 -175 0 -419 -32 -570 -75 -33 -10 -80 -23 -105 -30 -122 -35 -314 -126 -438 -209 -77 -51 -98 -55 -133 -27 -87 67 -354 198 -484 236 -197 57 -272 73 -445 90 -169 17 -294 17 -478 0z" style="fill: url('#gradient-0'); paint-order: fill; fill-rule: nonzero;"/>
    </g>
    <g transform="matrix(0.063437, 0, 0, -0.060927, 161.788223, 565.574097)" fill="#4f7a28" stroke="none" style="mix-blend-mode: multiply;">
      <path d="M1580 3280 c-367 -20 -821 -102 -978 -177 -129 -61 -151 -119 -133 -349 17 -205 37 -319 67 -365 13 -21 24 -41 24 -43 0 -3 13 -24 29 -48 39 -58 85 -156 105 -220 34 -114 34 -116 81 -378 50 -278 116 -504 197 -680 38 -81 100 -192 123 -217 5 -6 21 -26 34 -45 46 -62 176 -184 246 -230 167 -110 310 -164 565 -217 187 -39 564 -52 765 -27 178 23 350 65 470 116 286 120 462 261 628 501 43 62 155 272 186 349 8 19 22 53 31 75 10 22 25 63 35 90 9 28 21 59 25 70 18 45 41 115 65 198 30 105 71 249 85 297 82 299 97 329 196 391 32 19 53 24 109 24 61 0 76 -4 115 -30 90 -61 113 -109 194 -410 9 -33 21 -73 25 -90 5 -16 19 -64 31 -105 12 -41 25 -85 31 -98 5 -13 9 -30 9 -38 0 -9 6 -30 14 -47 8 -18 26 -66 39 -107 32 -98 64 -176 139 -337 37 -81 118 -214 181 -298 97 -130 219 -241 353 -322 67 -41 234 -120 271 -129 15 -4 33 -10 38 -15 6 -4 31 -13 55 -19 25 -6 72 -18 105 -26 33 -8 125 -24 205 -35 237 -33 621 -17 850 35 119 27 155 36 175 45 11 5 43 17 70 26 28 10 90 39 140 64 300 154 495 416 620 831 48 158 81 309 124 570 6 36 18 90 27 120 8 30 20 73 26 95 15 55 75 183 103 221 50 67 84 143 95 216 22 145 29 225 29 344 1 118 0 122 -28 161 -48 66 -118 104 -256 137 -38 10 -86 22 -105 27 -59 17 -230 46 -400 68 -47 6 -128 16 -180 23 -124 16 -936 16 -1070 0 -52 -6 -138 -16 -190 -22 -191 -20 -387 -51 -555 -85 -91 -19 -175 -36 -290 -59 -44 -9 -114 -23 -155 -32 -41 -8 -106 -22 -145 -29 -38 -8 -106 -22 -150 -31 -132 -26 -226 -43 -305 -55 -105 -15 -484 -6 -575 14 -38 9 -119 26 -180 38 -193 37 -237 46 -395 79 -85 18 -184 38 -220 45 -36 7 -110 22 -165 33 -55 11 -120 23 -145 27 -25 3 -63 10 -85 15 -39 8 -280 38 -480 59 -132 14 -761 21 -945 11z m1185 -290 c541 -49 875 -159 1040 -342 94 -105 138 -206 159 -370 23 -178 -5 -368 -96 -643 -43 -128 -55 -156 -147 -343 -137 -278 -247 -421 -406 -531 -88 -61 -232 -130 -335 -160 -41 -12 -88 -26 -105 -30 -123 -37 -213 -46 -465 -46 -266 0 -303 4 -488 51 -137 35 -279 94 -381 158 -61 39 -200 180 -249 252 -140 210 -240 517 -281 874 -36 306 -39 379 -16 496 69 353 225 509 580 580 306 62 839 86 1190 54z m4300 0 c149 -11 328 -34 430 -54 265 -53 416 -157 504 -347 77 -167 92 -298 68 -582 -17 -211 -31 -318 -47 -377 -5 -19 -19 -75 -30 -125 -21 -88 -40 -151 -65 -210 -7 -16 -21 -52 -31 -80 -72 -195 -235 -397 -399 -494 -127 -75 -171 -93 -370 -151 -124 -36 -214 -44 -475 -44 -277 0 -270 -1 -500 54 -171 41 -381 151 -510 266 -112 102 -231 291 -360 579 -144 319 -216 674 -179 879 29 157 81 265 174 358 83 85 249 178 379 215 108 30 193 51 236 57 25 4 65 11 90 16 255 50 713 67 1085 40z" style="fill: url('#gradient-1'); paint-order: fill; fill-rule: nonzero;"/>
    </g>
  </g>
</svg>