<?xml version="1.0" standalone="no"?>
<!DOCTYPE svg PUBLIC "-//W3C//DTD SVG 20010904//EN"
 "http://www.w3.org/TR/2001/REC-SVG-20010904/DTD/svg10.dtd">
<svg version="1.0" xmlns="http://www.w3.org/2000/svg"
 width="1200.000000pt" height="1200.000000pt" viewBox="0 0 1200.000000 1200.000000"
 preserveAspectRatio="xMidYMid meet">
<metadata>
Created by potrace 1.14, written by Peter Selinger 2001-2017
</metadata>
<g transform="translate(0.000000,1200.000000) scale(0.100000,-0.100000)"
fill="#000000" stroke="none">
<path d="M4607 9024 c-1 -1 -47 -5 -103 -8 -55 -4 -109 -8 -121 -10 -11 -3
-44 -7 -73 -11 -89 -11 -122 -18 -285 -61 -202 -54 -332 -100 -511 -184 -46
-22 -88 -40 -93 -40 -5 0 -11 -4 -13 -8 -1 -4 -34 -25 -73 -46 -75 -41 -286
-175 -296 -188 -3 -4 -28 -25 -55 -45 -119 -89 -288 -249 -374 -352 -25 -30
-55 -65 -68 -78 -12 -13 -22 -26 -22 -29 0 -3 -7 -12 -16 -21 -19 -20 -175
-258 -194 -298 -8 -16 -17 -32 -20 -35 -6 -6 -83 -172 -101 -216 -6 -16 -16
-40 -22 -54 -6 -14 -11 -27 -12 -30 -1 -3 -16 -50 -34 -105 -18 -55 -35 -107
-37 -115 -2 -8 -13 -49 -24 -90 -23 -81 -27 -99 -36 -145 -3 -16 -12 -63 -20
-103 -8 -40 -17 -91 -19 -113 -2 -23 -7 -51 -11 -62 -4 -11 -8 -34 -10 -51 -1
-17 -6 -65 -11 -106 -16 -150 -9 -649 10 -735 3 -11 8 -45 12 -75 4 -30 9 -62
10 -71 2 -9 6 -33 9 -53 17 -103 69 -339 86 -386 5 -14 19 -59 31 -100 12 -41
49 -154 81 -250 33 -96 60 -179 62 -185 2 -5 8 -21 13 -35 6 -14 25 -61 43
-105 17 -44 38 -93 45 -110 8 -16 33 -75 56 -130 41 -98 64 -150 110 -250 13
-27 23 -52 24 -55 1 -7 42 -94 85 -182 21 -42 36 -78 34 -81 -3 -2 2 -10 11
-17 8 -7 15 -18 15 -24 0 -13 63 -140 78 -158 6 -7 11 -17 12 -23 3 -12 61
-131 81 -165 31 -54 36 -55 90 -21 44 27 78 34 65 13 -7 -11 86 -137 149 -203
149 -154 358 -256 625 -305 64 -12 80 -14 150 -21 94 -10 458 -10 525 -1 43 6
189 34 220 42 131 35 135 37 270 103 120 58 229 135 297 210 24 25 48 51 53
57 23 26 85 105 85 109 0 3 19 36 42 73 35 59 88 165 143 289 11 27 23 60 32
90 1 6 18 54 37 108 20 53 33 97 30 97 -2 0 2 13 11 30 8 16 15 32 14 35 -2
12 14 71 21 80 5 6 8 12 8 15 0 3 5 25 12 50 7 25 14 52 15 60 2 8 4 16 5 18
2 1 4 7 5 12 1 6 3 11 5 13 1 1 3 10 5 19 4 23 51 120 67 138 31 37 89 62 141
62 62 0 83 -4 99 -20 7 -7 16 -12 21 -12 21 0 78 -81 94 -135 1 -5 14 -48 29
-95 32 -105 51 -167 72 -245 10 -33 21 -66 26 -73 4 -7 10 -28 13 -45 3 -18 9
-40 14 -49 5 -9 21 -49 35 -90 15 -40 34 -91 44 -113 10 -22 24 -55 31 -72 8
-18 17 -33 21 -33 5 0 7 -3 6 -8 -3 -14 22 -64 67 -133 25 -38 45 -74 45 -78
0 -5 3 -11 8 -13 4 -1 25 -25 46 -53 56 -72 196 -205 215 -205 5 0 14 -7 21
-15 32 -39 310 -160 425 -186 70 -15 74 -16 135 -24 30 -4 66 -10 80 -12 22
-3 217 -15 245 -15 33 1 256 14 285 17 19 3 51 6 70 8 19 3 60 9 90 16 51 11
65 13 123 26 29 6 132 46 169 66 10 5 24 9 32 9 8 0 16 3 18 8 2 4 29 20 61
37 31 16 57 33 57 36 0 4 9 10 20 14 21 7 190 171 190 185 0 5 6 15 13 22 7 7
23 31 37 53 13 22 25 42 26 44 2 2 18 -5 36 -16 18 -10 40 -17 49 -15 10 2 53
75 105 180 49 97 92 179 97 180 4 2 7 9 7 16 0 7 31 75 68 152 38 76 76 155
85 174 8 19 24 55 35 80 11 25 24 56 28 70 3 14 11 28 16 31 5 3 11 12 12 20
3 16 12 38 50 123 14 32 26 65 26 72 0 8 4 14 8 14 5 0 9 6 9 13 0 6 22 64 48
127 61 150 205 585 240 725 15 61 29 117 32 125 3 8 7 26 9 40 1 14 5 36 9 50
3 14 7 36 10 50 2 14 6 43 10 65 3 22 10 56 15 75 12 50 28 168 35 265 6 69 5
396 0 470 -14 178 -22 248 -41 342 -8 43 -17 89 -19 103 -6 40 -31 146 -64
275 -18 66 -33 127 -35 135 -7 27 -37 115 -46 135 -5 11 -23 56 -41 100 -17
44 -36 84 -40 89 -5 6 -9 16 -9 22 0 19 -121 231 -186 325 -125 183 -332 411
-490 539 -105 85 -165 130 -173 130 -6 0 -11 4 -11 8 0 5 -18 18 -40 31 -22
12 -45 28 -52 34 -7 7 -39 26 -70 42 -32 17 -58 33 -58 38 0 4 -8 7 -18 7 -10
0 -22 4 -27 9 -27 26 -372 183 -429 196 -11 2 -48 13 -80 25 -33 11 -65 20
-73 20 -7 0 -21 4 -31 9 -9 5 -66 21 -127 35 -98 22 -138 30 -276 50 -164 24
-502 25 -625 2 -11 -2 -39 -7 -64 -10 -69 -9 -99 -15 -180 -36 -132 -33 -188
-50 -235 -70 -25 -11 -45 -17 -45 -14 0 2 -11 -3 -25 -12 -14 -9 -25 -12 -25
-8 0 5 -4 5 -8 -1 -4 -5 -45 -29 -92 -52 -47 -24 -98 -51 -115 -60 -63 -38
-110 -67 -115 -73 -19 -24 -95 -31 -110 -10 -6 9 -138 90 -146 90 -3 0 -19 9
-35 21 -16 11 -29 17 -29 14 0 -3 -15 4 -32 17 -18 13 -34 22 -36 20 -1 -1
-32 12 -69 28 -76 35 -227 87 -275 95 -17 3 -35 8 -40 11 -5 3 -21 8 -36 10
-15 3 -46 9 -70 15 -24 5 -62 12 -85 14 -23 3 -53 7 -67 10 -62 11 -394 28
-403 19z m1798 -2448 c229 -14 392 -33 511 -60 12 -2 38 -7 59 -10 79 -13 234
-57 335 -96 58 -22 108 -40 112 -40 7 0 150 -81 158 -89 3 -3 30 -23 61 -43
140 -95 264 -243 342 -411 46 -97 117 -354 133 -477 9 -72 17 -159 18 -189 l1
-35 -185 -2 c-102 -1 -210 -5 -240 -8 -30 -3 -82 -8 -115 -12 -33 -3 -73 -7
-90 -9 -16 -2 -55 -6 -85 -9 -30 -3 -68 -9 -83 -12 -16 -3 -38 -7 -50 -9 -37
-4 -121 -17 -142 -22 -52 -11 -67 -14 -92 -18 -16 -2 -48 -8 -73 -14 -25 -5
-61 -12 -81 -15 -20 -3 -42 -8 -50 -10 -8 -3 -30 -7 -49 -10 -19 -3 -45 -8
-57 -11 -50 -11 -62 -14 -97 -19 -21 -3 -70 -13 -109 -21 -40 -8 -85 -17 -102
-20 -16 -2 -41 -7 -55 -10 -46 -10 -85 -16 -120 -21 -19 -2 -53 -7 -75 -10
-77 -10 -416 -4 -475 9 -8 2 -28 6 -45 10 -16 4 -43 9 -60 12 -16 3 -39 8 -50
10 -11 2 -33 7 -50 9 -71 13 -142 26 -165 32 -34 7 -58 11 -104 18 -21 4 -41
8 -45 10 -3 3 -25 7 -47 10 -37 6 -49 8 -106 21 -13 3 -59 12 -103 20 -44 8
-91 17 -105 20 -14 3 -44 7 -67 9 -24 3 -46 7 -50 9 -7 5 -85 15 -158 22 -38
3 -139 15 -185 21 -67 10 -176 15 -365 18 l-190 3 1 44 c1 48 13 158 20 192 3
12 7 33 10 47 2 14 9 50 15 80 7 30 13 62 14 70 2 8 4 15 5 15 1 0 3 8 5 18
21 111 100 290 174 396 61 87 214 241 240 241 5 0 11 4 13 9 8 20 136 92 278
154 59 26 191 69 255 83 6 1 28 6 50 12 22 6 54 13 70 16 17 3 57 11 90 17 33
6 71 13 85 14 14 2 48 7 75 11 28 4 62 7 78 8 15 0 27 3 27 6 0 3 19 5 43 6
62 1 302 15 304 18 5 5 639 -2 738 -8z m-1885 -1690 c25 -3 68 -7 95 -10 66
-7 178 -24 220 -32 61 -13 112 -24 130 -28 56 -12 169 -53 243 -88 108 -52
206 -146 249 -238 29 -62 38 -91 51 -170 9 -57 4 -222 -8 -270 -6 -25 -13 -56
-15 -70 -5 -28 -10 -48 -17 -70 -3 -8 -19 -55 -36 -105 -37 -108 -55 -158 -62
-165 -3 -3 -18 -34 -35 -70 -16 -36 -33 -66 -37 -68 -5 -2 -8 -9 -8 -14 0 -12
-87 -165 -105 -184 -28 -31 -45 -55 -45 -63 0 -8 -88 -93 -142 -138 -14 -11
-55 -36 -89 -55 -35 -18 -66 -36 -69 -39 -3 -3 -14 -8 -25 -12 -11 -3 -50 -17
-87 -31 -37 -14 -78 -27 -90 -30 -13 -2 -34 -9 -48 -14 -27 -10 -84 -20 -185
-31 -77 -8 -407 -6 -460 3 -22 4 -52 9 -67 11 -60 8 -220 56 -278 83 -19 9
-40 17 -47 18 -7 1 -39 18 -72 39 -57 34 -231 196 -231 215 0 5 -6 15 -13 22
-7 7 -23 34 -36 59 l-25 46 58 59 c32 33 70 75 85 94 14 19 36 46 49 60 12 14
25 33 28 43 3 9 9 17 14 17 5 0 12 9 15 20 3 11 12 26 18 32 45 46 195 366
210 445 2 10 11 43 21 74 9 31 19 67 22 80 13 60 18 86 18 107 1 12 3 22 6 22
3 0 6 8 7 18 1 9 5 33 8 52 3 19 8 51 10 70 3 19 8 49 10 65 3 17 7 48 9 70
15 166 16 171 44 170 15 0 56 2 92 5 76 7 554 4 620 -4z m3622 2 c25 -6 26 -7
33 -77 3 -36 8 -79 10 -95 2 -17 6 -49 9 -71 9 -67 16 -118 26 -170 5 -27 11
-61 14 -75 7 -44 37 -164 46 -185 5 -11 20 -58 35 -105 78 -244 234 -500 418
-681 31 -31 57 -62 57 -68 0 -42 -164 -230 -253 -290 -71 -48 -199 -105 -302
-134 -157 -45 -200 -49 -470 -49 -222 0 -335 15 -473 63 -31 11 -63 21 -69 21
-7 1 -13 5 -13 10 0 4 -8 8 -17 8 -19 1 -150 70 -198 105 -73 52 -95 75 -205
212 -6 7 -10 15 -10 17 0 3 -16 30 -35 60 -19 30 -35 57 -35 60 0 3 -13 27
-28 53 -16 26 -29 53 -30 58 -1 6 -15 37 -32 70 -92 188 -157 447 -154 610 1
73 14 165 23 165 4 0 7 9 8 19 5 59 134 241 172 241 6 0 11 5 11 10 0 6 7 10
15 10 8 0 15 5 15 10 0 6 6 10 14 10 8 0 16 3 18 8 12 27 226 103 353 126 17
3 44 8 60 11 17 3 54 10 83 15 29 5 56 9 60 9 4 -1 9 0 12 1 8 3 69 9 185 16
61 4 111 8 113 9 5 4 514 -3 534 -7z"/>
</g>
</svg>
